<svg width="18" height="18" viewBox="0 0 32 32" fill="none" xmlns="http://www.w3.org/2000/svg">
<path d="M5.6134 27.3597C5.48508 27.3612 5.35776 27.337 5.23878 27.289C5.11978 27.2409 5.01147 27.1698 4.92007 27.0797C4.81527 26.9762 4.73464 26.8509 4.68392 26.7126C4.63322 26.5742 4.61368 26.4265 4.62674 26.2797M5.6134 27.3597L5.32278 27.7666L5.41611 27.8332L5.44075 27.8508M5.6134 27.3597L5.61562 27.5539L5.61912 27.8597C5.55937 27.8604 5.49981 27.8574 5.44075 27.8508M5.6134 27.3597L4.98232 20.177M5.44075 27.8508C5.30727 27.836 5.17637 27.803 5.05172 27.7527L5.05129 27.7526C4.87143 27.6798 4.70748 27.5723 4.56899 27.4357L4.56879 27.4355C4.41155 27.2803 4.29059 27.0922 4.21451 26.8848L4.21444 26.8846C4.13869 26.6779 4.10932 26.4571 4.1285 26.2376L4.12836 26.2395L4.62674 26.2797M5.44075 27.8508L5.56694 27.941L5.75154 27.9244L10.9382 27.4577L10.9382 27.4578L10.9474 27.4568C11.2923 27.4193 11.6141 27.2654 11.8597 27.0205L11.8609 27.0193L26.6209 12.206L26.6316 12.1953L26.6416 12.184C27.4615 11.2552 27.9005 10.0508 27.8702 8.81211C27.8399 7.5734 27.3426 6.39192 26.4783 5.50428L26.4717 5.49751L26.4649 5.49099C25.5647 4.6339 24.3726 4.15095 23.1298 4.13983C21.8744 4.1022 20.6551 4.5629 19.7383 5.42149L19.7323 5.42709L19.7265 5.43288L4.98232 20.177M4.62674 26.2797L4.1287 26.2354M4.62674 26.2797L5.04007 21.1597C5.05779 20.922 5.16216 20.699 5.3334 20.533L4.1287 26.2354M4.1287 26.2354L4.54145 21.1225C4.54149 21.122 4.54154 21.1214 4.54158 21.1209C4.56866 20.763 4.72546 20.4275 4.98232 20.177M4.1287 26.2354L4.98232 20.177M24.8796 9.19402L24.8796 9.19417C24.8356 9.52801 24.6984 9.84266 24.484 10.1021L10.0942 24.5182L7.21048 24.7813L7.43106 21.9033L21.8383 7.58864C22.0002 7.44187 22.1897 7.32877 22.3959 7.256C22.6051 7.18218 22.8271 7.15138 23.0484 7.16543L23.0666 7.16658L23.0848 7.16641C23.4281 7.16318 23.7651 7.25857 24.0558 7.44124L24.3206 7.01989L24.0558 7.44124C24.3465 7.62392 24.5787 7.88619 24.7246 8.19683L24.7247 8.19696C24.8707 8.50767 24.9245 8.85374 24.8796 9.19402Z" fill="white" stroke="black"/>
</svg>
