<svg width="18" height="18" viewBox="0 0 802 802" fill="none" xmlns="http://www.w3.org/2000/svg">
<rect x="0.5" y="0.5" width="801" height="801" stroke="black"/>
<mask id="path-2-outside-1_26_59" maskUnits="userSpaceOnUse" x="51" y="16.667" width="700" height="768" fill="black">
<rect fill="white" x="51" y="16.667" width="700" height="768"/>
<path d="M101 734.334H501ZM301 67.667H701ZM301 734.334L381 467.667ZM501 67.667L421 334.334Z"/>
</mask>
<path d="M101 684.334C73.3858 684.334 51 706.719 51 734.334C51 761.948 73.3858 784.334 101 784.334V684.334ZM501 784.334C528.614 784.334 551 761.948 551 734.334C551 706.719 528.614 684.334 501 684.334V784.334ZM301 17.667C273.386 17.667 251 40.0528 251 67.667C251 95.2812 273.386 117.667 301 117.667V17.667ZM701 117.667C728.614 117.667 751 95.2812 751 67.667C751 40.0528 728.614 17.667 701 17.667V117.667ZM253.109 719.966C245.174 746.416 260.183 774.29 286.633 782.225C313.082 790.16 340.956 775.151 348.891 748.701L253.109 719.966ZM428.891 482.034C436.826 455.585 421.817 427.711 395.367 419.776C368.918 411.841 341.044 426.85 333.109 453.3L428.891 482.034ZM548.891 82.0344C556.826 55.5847 541.817 27.7106 515.367 19.7757C488.918 11.8408 461.044 26.85 453.109 53.2996L548.891 82.0344ZM373.109 319.966C365.174 346.416 380.183 374.29 406.633 382.225C433.082 390.16 460.956 375.151 468.891 348.701L373.109 319.966ZM101 784.334H501V684.334H101V784.334ZM301 117.667H701V17.667H301V117.667ZM348.891 748.701L428.891 482.034L333.109 453.3L253.109 719.966L348.891 748.701ZM453.109 53.2996L373.109 319.966L468.891 348.701L548.891 82.0344L453.109 53.2996Z" fill="white" mask="url(#path-2-outside-1_26_59)"/>
<path d="M101 684.334C73.3858 684.334 51 706.719 51 734.334C51 761.948 73.3858 784.334 101 784.334V684.334ZM501 784.334C528.614 784.334 551 761.948 551 734.334C551 706.719 528.614 684.334 501 684.334V784.334ZM301 17.667C273.386 17.667 251 40.0528 251 67.667C251 95.2812 273.386 117.667 301 117.667V17.667ZM701 117.667C728.614 117.667 751 95.2812 751 67.667C751 40.0528 728.614 17.667 701 17.667V117.667ZM253.109 719.966C245.174 746.416 260.183 774.29 286.633 782.225C313.082 790.16 340.956 775.151 348.891 748.701L253.109 719.966ZM428.891 482.034C436.826 455.585 421.817 427.711 395.367 419.776C368.918 411.841 341.044 426.85 333.109 453.3L428.891 482.034ZM548.891 82.0344C556.826 55.5847 541.817 27.7106 515.367 19.7757C488.918 11.8408 461.044 26.85 453.109 53.2996L548.891 82.0344ZM373.109 319.966C365.174 346.416 380.183 374.29 406.633 382.225C433.082 390.16 460.956 375.151 468.891 348.701L373.109 319.966ZM101 784.334H501V684.334H101V784.334ZM301 117.667H701V17.667H301V117.667ZM348.891 748.701L428.891 482.034L333.109 453.3L253.109 719.966L348.891 748.701ZM453.109 53.2996L373.109 319.966L468.891 348.701L548.891 82.0344L453.109 53.2996Z" fill="white" mask="url(#path-2-outside-1_26_59)"/>
<rect x="351.498" y="425.836" width="79.6208" height="345.013" rx="39.8104" transform="rotate(17.1427 351.498 425.836)" fill="black"/>
<rect x="351.498" y="425.836" width="79.6208" height="345.013" rx="39.8104" transform="rotate(17.1427 351.498 425.836)" fill="black"/>
<rect x="525.768" y="694" width="79.6208" height="458.768" rx="39.8104" transform="rotate(90 525.768 694)" fill="black"/>
<rect x="525.768" y="694" width="79.6208" height="458.768" rx="39.8104" transform="rotate(90 525.768 694)" fill="black"/>
<rect x="451.27" y="375.154" width="79.6208" height="345.013" rx="39.8104" transform="rotate(-162.857 451.27 375.154)" fill="black"/>
<rect x="451.27" y="375.154" width="79.6208" height="345.013" rx="39.8104" transform="rotate(-162.857 451.27 375.154)" fill="black"/>
<rect x="277" y="106.99" width="79.6208" height="458.768" rx="39.8104" transform="rotate(-90 277 106.99)" fill="black"/>
<rect x="277" y="106.99" width="79.6208" height="458.768" rx="39.8104" transform="rotate(-90 277 106.99)" fill="black"/>
</svg>
